<svg fill="#000000" xmlns="http://www.w3.org/2000/svg"  viewBox="0 0 50 50" width="50px" height="50px"><path d="M36,4H14C8.49,4,4,8.49,4,14v22c0,5.51,4.49,10,10,10h22c5.51,0,10-4.49,10-10V14C46,8.49,41.51,4,36,4z M9.92,24.38 c-0.05,0.12-0.12,0.23-0.21,0.33C9.52,24.9,9.27,25,9,25c-0.13,0-0.26-0.03-0.38-0.08c-0.13-0.05-0.23-0.12-0.33-0.21 C8.1,24.52,8,24.27,8,24c0-0.26,0.11-0.52,0.29-0.71c0.37-0.37,1.04-0.37,1.42,0C9.89,23.48,10,23.74,10,24 C10,24.13,9.97,24.26,9.92,24.38z M14,26c0,0.55-0.45,1-1,1s-1-0.45-1-1v-4c0-0.55,0.45-1,1-1s1,0.45,1,1V26z M18,37 c0,0.55-0.45,1-1,1s-1-0.45-1-1V12c0-0.55,0.45-1,1-1s1,0.45,1,1V37z M22,28c0,0.55-0.45,1-1,1s-1-0.45-1-1v-6c0-0.55,0.45-1,1-1 s1,0.45,1,1V28z M27,39c0,1.1-0.9,2-2,2s-2-0.9-2-2c0-0.74,0.4-1.38,1-1.72V11.72c-0.6-0.34-1-0.98-1-1.72c0-1.1,0.9-2,2-2 s2,0.9,2,2c0,0.74-0.4,1.38-1,1.72v25.56C26.6,37.62,27,38.26,27,39z M30,29c0,0.55-0.45,1-1,1s-1-0.45-1-1V19c0-0.55,0.45-1,1-1 s1,0.45,1,1V29z M34,26c0,0.55-0.45,1-1,1s-1-0.45-1-1v-5c0-0.55,0.45-1,1-1s1,0.45,1,1V26z M38,25c0,0.55-0.45,1-1,1s-1-0.45-1-1 v-2c0-0.55,0.45-1,1-1s1,0.45,1,1V25z M41.71,24.71C41.52,24.9,41.27,25,41,25s-0.52-0.1-0.71-0.29S40,24.27,40,24 c0-0.13,0.03-0.26,0.08-0.38c0.05-0.13,0.12-0.23,0.21-0.33c0.37-0.37,1.05-0.37,1.42,0C41.89,23.48,42,23.74,42,24 C42,24.27,41.9,24.52,41.71,24.71z"/></svg>